<?xml version="1.0" encoding="utf-8"?><svg viewBox="0 0 24 24" xmlns="http://www.w3.org/2000/svg" xmlns:xlink="http://www.w3.org/1999/xlink"><style>:root>svg{display:none}:root>svg:target{display:block}</style><svg viewBox="0 0 24 24" id="Calling-icon" xmlns="http://www.w3.org/2000/svg"><path d="M14.353 2.5a7.97 7.97 0 0 1 7.04 7.032M14.353 6.043a4.426 4.426 0 0 1 3.5 3.5"/><path fill-rule="evenodd" clip-rule="evenodd" d="M11.031 12.472c3.99 3.988 4.894-.625 7.434 1.913 2.449 2.448 3.857 2.938.754 6.04-.389.312-2.858 4.07-11.535-4.605C-.993 7.144 2.762 4.672 3.074 4.284c3.11-3.11 3.593-1.695 6.041.753 2.54 2.54-2.072 3.447 1.916 7.435Z"/></svg><svg viewBox="0 0 21 20" id="Cart-icon" xmlns="http://www.w3.org/2000/svg"><path d="m1 1.176 2.08.356.963 11.34c.077.926.86 1.636 1.8 1.633h10.909a1.794 1.794 0 0 0 1.785-1.528l.949-6.482a1.328 1.328 0 0 0-1.135-1.501c-.064-.009-14.937-.014-14.937-.014M12.375 8.633h2.773"/><path fill-rule="evenodd" clip-rule="evenodd" d="M5.404 17.932a.54.54 0 0 1 .544.538.541.541 0 0 1-.544.539.541.541 0 0 1-.544-.54.54.54 0 0 1 .544-.537ZM16.685 17.932c.3 0 .545.24.545.538a.542.542 0 0 1-.545.539.541.541 0 0 1-.544-.54.54.54 0 0 1 .544-.537Z"/></svg><svg viewBox="0 0 24 24" id="Location-icon" xmlns="http://www.w3.org/2000/svg"><g fill-rule="evenodd" clip-rule="evenodd"><path d="M14.5 10.5a2.5 2.5 0 1 0-5 0 2.5 2.5 0 0 0 5 0Z"/><path d="M12 21c-1.199 0-7.5-5.102-7.5-10.437C4.5 6.387 7.857 3 12 3c4.142 0 7.5 3.387 7.5 7.563C19.5 15.898 13.198 21 12 21Z"/></g></svg><svg viewBox="0 0 24 24" id="Message-icon" xmlns="http://www.w3.org/2000/svg"><path d="m17.903 8.851-4.444 3.613c-.84.666-2.02.666-2.86 0L6.12 8.851"/><path fill-rule="evenodd" clip-rule="evenodd" d="M16.909 21C19.95 21.008 22 18.51 22 15.438V8.57C22 5.499 19.95 3 16.909 3H7.09C4.05 3 2 5.499 2 8.57v6.868C2 18.51 4.05 21.008 7.091 21h9.818Z"/></svg><svg viewBox="0 0 21 21" id="Search-icon" xmlns="http://www.w3.org/2000/svg"><ellipse cx="9.767" cy="9.63" rx="8.989" ry="8.884"/><path d="m16.018 16.27 3.524 3.475"/></svg><svg viewBox="0 0 10 21" id="facebook-icon" xmlns="http://www.w3.org/2000/svg"><path d="M2.547 20.526v-9.631H0V7.427h2.547V4.465C2.547 2.137 4.05 0 7.517 0 8.922 0 9.96.135 9.96.135l-.082 3.238s-1.058-.01-2.213-.01c-1.25 0-1.45.576-1.45 1.532v2.532h3.763l-.164 3.468h-3.6v9.631H2.547Z"/></svg><svg viewBox="0 0 20 20" id="instagram-icon" xmlns="http://www.w3.org/2000/svg"><path d="M9.748 6.499A3.258 3.258 0 0 0 6.496 9.75a3.258 3.258 0 0 0 3.252 3.251 3.258 3.258 0 0 0 3.25-3.251 3.258 3.258 0 0 0-3.25-3.251Zm9.751 3.251c0-1.346.013-2.68-.063-4.025-.076-1.56-.432-2.946-1.573-4.088C16.719.493 15.336.14 13.775.064 12.428-.01 11.094.001 9.75.001 8.404 0 7.07-.011 5.725.064 4.165.14 2.78.496 1.637 1.637.493 2.781.14 4.164.064 5.725-.01 7.072.001 8.406.001 9.75c0 1.344-.012 2.68.063 4.025.076 1.56.432 2.946 1.573 4.088 1.144 1.144 2.527 1.497 4.088 1.573 1.347.076 2.681.063 4.025.063 1.346 0 2.68.013 4.025-.063 1.56-.076 2.946-.432 4.088-1.573 1.144-1.144 1.497-2.527 1.573-4.088.078-1.344.063-2.679.063-4.025Zm-9.751 5.003A4.996 4.996 0 0 1 4.745 9.75a4.996 4.996 0 0 1 5.003-5.003A4.996 4.996 0 0 1 14.75 9.75a4.996 4.996 0 0 1-5.002 5.003Zm5.207-9.042a1.167 1.167 0 0 1-1.168-1.169c0-.646.522-1.168 1.168-1.168a1.167 1.167 0 0 1 .827 1.995 1.167 1.167 0 0 1-.827.342Z"/></svg><svg viewBox="0 0 15 15" id="telegram-icon" xmlns="http://www.w3.org/2000/svg"><path d="M9.318 14.3a.694.694 0 0 1-.616-.36l-2.041-3.858a.622.622 0 0 1 .05-.66L10.005 5.2 5.538 8.314a.725.725 0 0 1-.7.046L.757 6.432a.646.646 0 0 1-.379-.618.653.653 0 0 1 .449-.574L13.895.69a.719.719 0 0 1 .724.15c.19.18.252.447.16.685l-4.816 12.35a.684.684 0 0 1-.607.424l-.038.001Z"/></svg><svg viewBox="0 0 21 17" id="twitter-icon" xmlns="http://www.w3.org/2000/svg"><path d="M20.526 1.98a8.436 8.436 0 0 1-2.422.652 4.196 4.196 0 0 0 1.85-2.319 8.304 8.304 0 0 1-2.67 1.017A4.196 4.196 0 0 0 14.212 0a4.205 4.205 0 0 0-4.206 4.208c0 .326.04.652.104.965A11.954 11.954 0 0 1 1.436.77a4.177 4.177 0 0 0-.573 2.124c0 1.46.743 2.748 1.875 3.505a4.243 4.243 0 0 1-1.902-.535v.051a4.207 4.207 0 0 0 3.372 4.13 4.456 4.456 0 0 1-1.107.143c-.274 0-.533-.027-.795-.064a4.214 4.214 0 0 0 3.933 2.918 8.43 8.43 0 0 1-5.223 1.798c-.352 0-.678-.012-1.016-.051a11.911 11.911 0 0 0 6.46 1.887c7.737 0 11.97-6.41 11.97-11.972 0-.182 0-.365-.013-.547a9.06 9.06 0 0 0 2.11-2.176Z"/></svg></svg>